<mxfile host="65bd71144e">
    <diagram name="Страница — 1" id="y-v5PsPKPSN_T8NJfxyy">
        <mxGraphModel dx="2299" dy="680" grid="1" gridSize="10" guides="1" tooltips="1" connect="1" arrows="1" fold="1" page="1" pageScale="1" pageWidth="827" pageHeight="1169" math="0" shadow="0">
            <root>
                <mxCell id="0"/>
                <mxCell id="1" parent="0"/>
                <mxCell id="eUXOg0ovLD5lxjKrLg9W-1" value="Да" style="swimlane;horizontal=0;whiteSpace=wrap;html=1;" parent="1" vertex="1">
                    <mxGeometry x="-110" y="150" width="1280" height="470" as="geometry"/>
                </mxCell>
                <mxCell id="eUXOg0ovLD5lxjKrLg9W-9" value="" style="edgeStyle=orthogonalEdgeStyle;rounded=0;orthogonalLoop=1;jettySize=auto;html=1;" parent="eUXOg0ovLD5lxjKrLg9W-1" source="eUXOg0ovLD5lxjKrLg9W-3" target="eUXOg0ovLD5lxjKrLg9W-6" edge="1">
                    <mxGeometry relative="1" as="geometry"/>
                </mxCell>
                <mxCell id="eUXOg0ovLD5lxjKrLg9W-3" value="" style="points=[[0.145,0.145,0],[0.5,0,0],[0.855,0.145,0],[1,0.5,0],[0.855,0.855,0],[0.5,1,0],[0.145,0.855,0],[0,0.5,0]];shape=mxgraph.bpmn.event;html=1;verticalLabelPosition=bottom;labelBackgroundColor=#ffffff;verticalAlign=top;align=center;perimeter=ellipsePerimeter;outlineConnect=0;aspect=fixed;outline=standard;symbol=general;" parent="eUXOg0ovLD5lxjKrLg9W-1" vertex="1">
                    <mxGeometry x="60" y="50" width="50" height="50" as="geometry"/>
                </mxCell>
                <mxCell id="eUXOg0ovLD5lxjKrLg9W-10" value="" style="edgeStyle=orthogonalEdgeStyle;rounded=0;orthogonalLoop=1;jettySize=auto;html=1;" parent="eUXOg0ovLD5lxjKrLg9W-1" source="eUXOg0ovLD5lxjKrLg9W-6" target="eUXOg0ovLD5lxjKrLg9W-7" edge="1">
                    <mxGeometry relative="1" as="geometry"/>
                </mxCell>
                <mxCell id="eUXOg0ovLD5lxjKrLg9W-6" value="Зарегистрироваться" style="rounded=1;whiteSpace=wrap;html=1;" parent="eUXOg0ovLD5lxjKrLg9W-1" vertex="1">
                    <mxGeometry x="140" y="45" width="120" height="60" as="geometry"/>
                </mxCell>
                <mxCell id="eUXOg0ovLD5lxjKrLg9W-7" value="Авторизоваться" style="rounded=1;whiteSpace=wrap;html=1;" parent="eUXOg0ovLD5lxjKrLg9W-1" vertex="1">
                    <mxGeometry x="290" y="45" width="120" height="60" as="geometry"/>
                </mxCell>
                <mxCell id="eUXOg0ovLD5lxjKrLg9W-8" value="Начать" style="text;html=1;align=center;verticalAlign=middle;resizable=0;points=[];autosize=1;strokeColor=none;fillColor=none;" parent="eUXOg0ovLD5lxjKrLg9W-1" vertex="1">
                    <mxGeometry x="55" y="105" width="60" height="30" as="geometry"/>
                </mxCell>
                <mxCell id="eUXOg0ovLD5lxjKrLg9W-24" value="" style="edgeStyle=orthogonalEdgeStyle;rounded=0;orthogonalLoop=1;jettySize=auto;html=1;" parent="eUXOg0ovLD5lxjKrLg9W-1" source="eUXOg0ovLD5lxjKrLg9W-18" target="eUXOg0ovLD5lxjKrLg9W-23" edge="1">
                    <mxGeometry relative="1" as="geometry"/>
                </mxCell>
                <mxCell id="eUXOg0ovLD5lxjKrLg9W-27" style="edgeStyle=orthogonalEdgeStyle;rounded=0;orthogonalLoop=1;jettySize=auto;html=1;entryX=0.5;entryY=1;entryDx=0;entryDy=0;exitX=0.5;exitY=1;exitDx=0;exitDy=0;exitPerimeter=0;" parent="eUXOg0ovLD5lxjKrLg9W-1" source="eUXOg0ovLD5lxjKrLg9W-18" target="eUXOg0ovLD5lxjKrLg9W-7" edge="1">
                    <mxGeometry relative="1" as="geometry">
                        <mxPoint x="470" y="110" as="sourcePoint"/>
                    </mxGeometry>
                </mxCell>
                <mxCell id="eUXOg0ovLD5lxjKrLg9W-18" value="" style="points=[[0.25,0.25,0],[0.5,0,0],[0.75,0.25,0],[1,0.5,0],[0.75,0.75,0],[0.5,1,0],[0.25,0.75,0],[0,0.5,0]];shape=mxgraph.bpmn.gateway2;html=1;verticalLabelPosition=bottom;labelBackgroundColor=#ffffff;verticalAlign=top;align=center;perimeter=rhombusPerimeter;outlineConnect=0;outline=none;symbol=none;gwType=exclusive;" parent="eUXOg0ovLD5lxjKrLg9W-1" vertex="1">
                    <mxGeometry x="454" y="50" width="50" height="50" as="geometry"/>
                </mxCell>
                <mxCell id="eUXOg0ovLD5lxjKrLg9W-48" style="edgeStyle=orthogonalEdgeStyle;rounded=0;orthogonalLoop=1;jettySize=auto;html=1;" parent="eUXOg0ovLD5lxjKrLg9W-1" source="eUXOg0ovLD5lxjKrLg9W-23" target="eUXOg0ovLD5lxjKrLg9W-42" edge="1">
                    <mxGeometry relative="1" as="geometry">
                        <Array as="points">
                            <mxPoint x="605" y="150"/>
                            <mxPoint x="750" y="150"/>
                        </Array>
                    </mxGeometry>
                </mxCell>
                <mxCell id="2" style="edgeStyle=none;html=1;exitX=1;exitY=0.5;exitDx=0;exitDy=0;exitPerimeter=0;entryX=0;entryY=0.5;entryDx=0;entryDy=0;" parent="eUXOg0ovLD5lxjKrLg9W-1" source="eUXOg0ovLD5lxjKrLg9W-23" target="eUXOg0ovLD5lxjKrLg9W-37" edge="1">
                    <mxGeometry relative="1" as="geometry"/>
                </mxCell>
                <mxCell id="eUXOg0ovLD5lxjKrLg9W-23" value="Выбор действия" style="points=[[0.145,0.145,0],[0.5,0,0],[0.855,0.145,0],[1,0.5,0],[0.855,0.855,0],[0.5,1,0],[0.145,0.855,0],[0,0.5,0]];shape=mxgraph.bpmn.event;html=1;verticalLabelPosition=bottom;labelBackgroundColor=#ffffff;verticalAlign=top;align=center;perimeter=ellipsePerimeter;outlineConnect=0;aspect=fixed;outline=standard;symbol=general;" parent="eUXOg0ovLD5lxjKrLg9W-1" vertex="1">
                    <mxGeometry x="580" y="50" width="50" height="50" as="geometry"/>
                </mxCell>
                <mxCell id="eUXOg0ovLD5lxjKrLg9W-26" value="" style="edgeStyle=orthogonalEdgeStyle;rounded=0;orthogonalLoop=1;jettySize=auto;html=1;entryX=0;entryY=0.5;entryDx=0;entryDy=0;entryPerimeter=0;" parent="eUXOg0ovLD5lxjKrLg9W-1" source="eUXOg0ovLD5lxjKrLg9W-7" target="eUXOg0ovLD5lxjKrLg9W-18" edge="1">
                    <mxGeometry relative="1" as="geometry"/>
                </mxCell>
                <mxCell id="eUXOg0ovLD5lxjKrLg9W-19" value="Пройдена?" style="text;html=1;align=center;verticalAlign=middle;resizable=0;points=[];autosize=1;strokeColor=none;fillColor=none;" parent="eUXOg0ovLD5lxjKrLg9W-1" vertex="1">
                    <mxGeometry x="480" y="20" width="90" height="30" as="geometry"/>
                </mxCell>
                <mxCell id="eUXOg0ovLD5lxjKrLg9W-31" value="Выход" style="points=[[0.145,0.145,0],[0.5,0,0],[0.855,0.145,0],[1,0.5,0],[0.855,0.855,0],[0.5,1,0],[0.145,0.855,0],[0,0.5,0]];shape=mxgraph.bpmn.event;html=1;verticalLabelPosition=bottom;labelBackgroundColor=#ffffff;verticalAlign=top;align=center;perimeter=ellipsePerimeter;outlineConnect=0;aspect=fixed;outline=standard;symbol=general;" parent="eUXOg0ovLD5lxjKrLg9W-1" vertex="1">
                    <mxGeometry x="60" y="210" width="50" height="50" as="geometry"/>
                </mxCell>
                <mxCell id="eUXOg0ovLD5lxjKrLg9W-33" value="" style="endArrow=classic;html=1;rounded=0;entryX=1;entryY=0.5;entryDx=0;entryDy=0;entryPerimeter=0;exitX=0.5;exitY=1;exitDx=0;exitDy=0;" parent="eUXOg0ovLD5lxjKrLg9W-1" source="eUXOg0ovLD5lxjKrLg9W-6" target="eUXOg0ovLD5lxjKrLg9W-31" edge="1">
                    <mxGeometry width="50" height="50" relative="1" as="geometry">
                        <mxPoint x="470" y="200" as="sourcePoint"/>
                        <mxPoint x="520" y="150" as="targetPoint"/>
                        <Array as="points">
                            <mxPoint x="200" y="235"/>
                        </Array>
                    </mxGeometry>
                </mxCell>
                <mxCell id="eUXOg0ovLD5lxjKrLg9W-35" value="" style="endArrow=classic;html=1;rounded=0;entryX=1;entryY=0.5;entryDx=0;entryDy=0;entryPerimeter=0;exitX=0.25;exitY=1;exitDx=0;exitDy=0;" parent="eUXOg0ovLD5lxjKrLg9W-1" source="eUXOg0ovLD5lxjKrLg9W-7" target="eUXOg0ovLD5lxjKrLg9W-31" edge="1">
                    <mxGeometry width="50" height="50" relative="1" as="geometry">
                        <mxPoint x="470" y="200" as="sourcePoint"/>
                        <mxPoint x="520" y="150" as="targetPoint"/>
                        <Array as="points">
                            <mxPoint x="320" y="235"/>
                        </Array>
                    </mxGeometry>
                </mxCell>
                <mxCell id="eUXOg0ovLD5lxjKrLg9W-37" value="Смена пароля" style="rounded=1;whiteSpace=wrap;html=1;" parent="eUXOg0ovLD5lxjKrLg9W-1" vertex="1">
                    <mxGeometry x="800" y="45" width="120" height="60" as="geometry"/>
                </mxCell>
                <mxCell id="eUXOg0ovLD5lxjKrLg9W-49" style="edgeStyle=orthogonalEdgeStyle;rounded=0;orthogonalLoop=1;jettySize=auto;html=1;entryX=0.5;entryY=0;entryDx=0;entryDy=0;" parent="eUXOg0ovLD5lxjKrLg9W-1" source="eUXOg0ovLD5lxjKrLg9W-42" target="eUXOg0ovLD5lxjKrLg9W-43" edge="1">
                    <mxGeometry relative="1" as="geometry">
                        <Array as="points">
                            <mxPoint x="750" y="280"/>
                            <mxPoint x="490" y="280"/>
                        </Array>
                    </mxGeometry>
                </mxCell>
                <mxCell id="eUXOg0ovLD5lxjKrLg9W-50" style="edgeStyle=orthogonalEdgeStyle;rounded=0;orthogonalLoop=1;jettySize=auto;html=1;entryX=0.5;entryY=0;entryDx=0;entryDy=0;" parent="eUXOg0ovLD5lxjKrLg9W-1" source="eUXOg0ovLD5lxjKrLg9W-42" target="eUXOg0ovLD5lxjKrLg9W-44" edge="1">
                    <mxGeometry relative="1" as="geometry"/>
                </mxCell>
                <mxCell id="eUXOg0ovLD5lxjKrLg9W-51" style="edgeStyle=orthogonalEdgeStyle;rounded=0;orthogonalLoop=1;jettySize=auto;html=1;entryX=0.5;entryY=0;entryDx=0;entryDy=0;" parent="eUXOg0ovLD5lxjKrLg9W-1" target="eUXOg0ovLD5lxjKrLg9W-45" edge="1">
                    <mxGeometry relative="1" as="geometry">
                        <mxPoint x="750" y="250" as="sourcePoint"/>
                    </mxGeometry>
                </mxCell>
                <mxCell id="eUXOg0ovLD5lxjKrLg9W-42" value="Действия с постами" style="rounded=1;whiteSpace=wrap;html=1;" parent="eUXOg0ovLD5lxjKrLg9W-1" vertex="1">
                    <mxGeometry x="690" y="180" width="120" height="60" as="geometry"/>
                </mxCell>
                <mxCell id="eUXOg0ovLD5lxjKrLg9W-43" value="Смотреть посты" style="rounded=1;whiteSpace=wrap;html=1;" parent="eUXOg0ovLD5lxjKrLg9W-1" vertex="1">
                    <mxGeometry x="430" y="320" width="120" height="60" as="geometry"/>
                </mxCell>
                <mxCell id="eUXOg0ovLD5lxjKrLg9W-44" value="Удалять свои посты" style="rounded=1;whiteSpace=wrap;html=1;" parent="eUXOg0ovLD5lxjKrLg9W-1" vertex="1">
                    <mxGeometry x="690" y="320" width="120" height="60" as="geometry"/>
                </mxCell>
                <mxCell id="eUXOg0ovLD5lxjKrLg9W-45" value="Написать комментарий к посту" style="rounded=1;whiteSpace=wrap;html=1;" parent="eUXOg0ovLD5lxjKrLg9W-1" vertex="1">
                    <mxGeometry x="1090" y="280" width="120" height="60" as="geometry"/>
                </mxCell>
                <mxCell id="4" value="Оценивать посты" style="rounded=1;whiteSpace=wrap;html=1;" vertex="1" parent="eUXOg0ovLD5lxjKrLg9W-1">
                    <mxGeometry x="820" y="320" width="120" height="60" as="geometry"/>
                </mxCell>
                <mxCell id="5" value="Создавать посты" style="rounded=1;whiteSpace=wrap;html=1;" vertex="1" parent="eUXOg0ovLD5lxjKrLg9W-1">
                    <mxGeometry x="560" y="320" width="120" height="60" as="geometry"/>
                </mxCell>
                <mxCell id="eUXOg0ovLD5lxjKrLg9W-12" value="" style="shape=datastore;whiteSpace=wrap;html=1;" parent="1" vertex="1">
                    <mxGeometry x="359" y="60" width="60" height="60" as="geometry"/>
                </mxCell>
                <mxCell id="eUXOg0ovLD5lxjKrLg9W-21" value="" style="edgeStyle=orthogonalEdgeStyle;rounded=0;orthogonalLoop=1;jettySize=auto;html=1;" parent="1" source="eUXOg0ovLD5lxjKrLg9W-18" target="eUXOg0ovLD5lxjKrLg9W-12" edge="1">
                    <mxGeometry relative="1" as="geometry"/>
                </mxCell>
                <mxCell id="eUXOg0ovLD5lxjKrLg9W-22" value="Пользователи" style="text;html=1;align=center;verticalAlign=middle;resizable=0;points=[];autosize=1;strokeColor=none;fillColor=none;" parent="1" vertex="1">
                    <mxGeometry x="350" y="120" width="100" height="30" as="geometry"/>
                </mxCell>
                <mxCell id="eUXOg0ovLD5lxjKrLg9W-29" value="Нет" style="text;html=1;align=center;verticalAlign=middle;resizable=0;points=[];autosize=1;strokeColor=none;fillColor=none;" parent="1" vertex="1">
                    <mxGeometry x="361" y="288" width="40" height="30" as="geometry"/>
                </mxCell>
                <mxCell id="eUXOg0ovLD5lxjKrLg9W-30" value="Да" style="text;html=1;align=center;verticalAlign=middle;resizable=0;points=[];autosize=1;strokeColor=none;fillColor=none;" parent="1" vertex="1">
                    <mxGeometry x="401" y="228" width="40" height="30" as="geometry"/>
                </mxCell>
                <mxCell id="eUXOg0ovLD5lxjKrLg9W-36" value="" style="endArrow=classic;html=1;rounded=0;entryX=1;entryY=0.5;entryDx=0;entryDy=0;entryPerimeter=0;" parent="1" target="eUXOg0ovLD5lxjKrLg9W-31" edge="1">
                    <mxGeometry width="50" height="50" relative="1" as="geometry">
                        <mxPoint x="450" y="230" as="sourcePoint"/>
                        <mxPoint x="430" y="310" as="targetPoint"/>
                        <Array as="points">
                            <mxPoint x="450" y="385"/>
                        </Array>
                    </mxGeometry>
                </mxCell>
                <mxCell id="eUXOg0ovLD5lxjKrLg9W-59" value="" style="shape=datastore;whiteSpace=wrap;html=1;" parent="1" vertex="1">
                    <mxGeometry x="610" y="650" width="60" height="60" as="geometry"/>
                </mxCell>
                <mxCell id="eUXOg0ovLD5lxjKrLg9W-60" value="Сообщества" style="text;html=1;align=center;verticalAlign=middle;resizable=0;points=[];autosize=1;strokeColor=none;fillColor=none;" parent="1" vertex="1">
                    <mxGeometry x="595" y="710" width="90" height="30" as="geometry"/>
                </mxCell>
                <mxCell id="eUXOg0ovLD5lxjKrLg9W-64" value="Комментарии" style="text;html=1;align=center;verticalAlign=middle;resizable=0;points=[];autosize=1;strokeColor=none;fillColor=none;" parent="1" vertex="1">
                    <mxGeometry x="990" y="710" width="100" height="30" as="geometry"/>
                </mxCell>
                <mxCell id="eUXOg0ovLD5lxjKrLg9W-65" value="" style="shape=datastore;whiteSpace=wrap;html=1;" parent="1" vertex="1">
                    <mxGeometry x="1010" y="650" width="60" height="60" as="geometry"/>
                </mxCell>
                <mxCell id="eUXOg0ovLD5lxjKrLg9W-71" style="edgeStyle=orthogonalEdgeStyle;rounded=0;orthogonalLoop=1;jettySize=auto;html=1;entryX=0.5;entryY=0;entryDx=0;entryDy=0;" parent="1" source="eUXOg0ovLD5lxjKrLg9W-44" target="eUXOg0ovLD5lxjKrLg9W-59" edge="1">
                    <mxGeometry relative="1" as="geometry"/>
                </mxCell>
                <mxCell id="3" style="edgeStyle=none;html=1;exitX=0.5;exitY=0;exitDx=0;exitDy=0;entryX=1;entryY=0.5;entryDx=0;entryDy=0;rounded=0;" parent="1" source="eUXOg0ovLD5lxjKrLg9W-37" target="eUXOg0ovLD5lxjKrLg9W-12" edge="1">
                    <mxGeometry relative="1" as="geometry">
                        <Array as="points">
                            <mxPoint x="750" y="90"/>
                        </Array>
                    </mxGeometry>
                </mxCell>
                <mxCell id="6" style="edgeStyle=none;html=1;exitX=0.5;exitY=0;exitDx=0;exitDy=0;endArrow=none;endFill=0;startArrow=classic;startFill=1;" edge="1" parent="1" source="5">
                    <mxGeometry relative="1" as="geometry">
                        <mxPoint x="510.31578947368416" y="430" as="targetPoint"/>
                    </mxGeometry>
                </mxCell>
                <mxCell id="7" style="edgeStyle=none;html=1;exitX=0.5;exitY=0;exitDx=0;exitDy=0;startArrow=classic;startFill=1;endArrow=none;endFill=0;rounded=0;" edge="1" parent="1" source="4">
                    <mxGeometry relative="1" as="geometry">
                        <mxPoint x="640" y="430" as="targetPoint"/>
                        <Array as="points">
                            <mxPoint x="770" y="430"/>
                        </Array>
                    </mxGeometry>
                </mxCell>
                <mxCell id="9" style="edgeStyle=none;rounded=0;html=1;exitX=0.5;exitY=1;exitDx=0;exitDy=0;entryX=0.5;entryY=0;entryDx=0;entryDy=0;startArrow=none;startFill=0;endArrow=classic;endFill=1;" edge="1" parent="1" source="eUXOg0ovLD5lxjKrLg9W-45" target="eUXOg0ovLD5lxjKrLg9W-65">
                    <mxGeometry relative="1" as="geometry"/>
                </mxCell>
                <mxCell id="10" style="edgeStyle=none;rounded=0;html=1;exitX=0.5;exitY=1;exitDx=0;exitDy=0;startArrow=none;startFill=0;endArrow=none;endFill=0;" edge="1" parent="1" source="eUXOg0ovLD5lxjKrLg9W-43">
                    <mxGeometry relative="1" as="geometry">
                        <mxPoint x="640" y="590" as="targetPoint"/>
                        <Array as="points">
                            <mxPoint x="380" y="590"/>
                        </Array>
                    </mxGeometry>
                </mxCell>
                <mxCell id="11" style="edgeStyle=none;rounded=0;html=1;exitX=0.5;exitY=1;exitDx=0;exitDy=0;startArrow=none;startFill=0;endArrow=none;endFill=0;" edge="1" parent="1" source="5">
                    <mxGeometry relative="1" as="geometry">
                        <mxPoint x="510.217391304348" y="590.0000000000001" as="targetPoint"/>
                    </mxGeometry>
                </mxCell>
                <mxCell id="12" style="edgeStyle=none;rounded=0;html=1;exitX=0.5;exitY=1;exitDx=0;exitDy=0;startArrow=none;startFill=0;endArrow=none;endFill=0;" edge="1" parent="1" source="4">
                    <mxGeometry relative="1" as="geometry">
                        <mxPoint x="640" y="590.0000000000001" as="targetPoint"/>
                        <Array as="points">
                            <mxPoint x="770" y="590"/>
                        </Array>
                    </mxGeometry>
                </mxCell>
                <mxCell id="13" style="edgeStyle=none;rounded=0;html=1;exitX=0;exitY=0.5;exitDx=0;exitDy=0;startArrow=classic;startFill=1;endArrow=none;endFill=0;" edge="1" parent="1" source="eUXOg0ovLD5lxjKrLg9W-43">
                    <mxGeometry relative="1" as="geometry">
                        <mxPoint x="10" y="230" as="targetPoint"/>
                        <Array as="points">
                            <mxPoint x="10" y="500"/>
                        </Array>
                    </mxGeometry>
                </mxCell>
            </root>
        </mxGraphModel>
    </diagram>
</mxfile>
